General                          : ChattChitto RG - Movies [R2L]
==========

Complete name                    : Red 2010 BRRip H264 AAC [ChattChitto RG]
Format                           : MPEG-4
Format profile                   : Base Media / Version 2
Codec ID                         : mp42
File size                        : 2.06 GiB
Duration                         : 1h 51mn
Overall bit rate                 : 2 658 Kbps
Encoded date                     : UTC 2011-01-08 13:54:08

Video
==========
ID                               : 2
Format                           : AVC
Format/Info                      : Advanced Video Codec
Format profile                   : High@L4.0
Format settings, CABAC           : Yes
Format settings, ReFrames        : 4 frames
Codec ID                         : avc1
Codec ID/Info                    : Advanced Video Coding
Duration                         : 1h 51mn
Bit rate mode                    : Variable
Bit rate                         : 2 300 Kbps
Maximum bit rate                 : 15.7 Mbps
Width                            : 1 280 pixels
Height                           : 528 pixels
Display aspect ratio             : 2.40:1
Frame rate mode                  : Constant
Frame rate                       : 23.976 fps
Resolution                       : 24 bits
Colorimetry                      : 4:2:0
Scan type                        : Progressive
Bits/(Pixel*Frame)               : 0.142
Stream size                      : 1.79 GiB (87%)
Writing library                  : x264 core 84 r1400M 20fa784
Encoded date                     : UTC 2011-01-08 05:57:50

Audio
==========
ID                               : 1
Format                           : AAC
Format/Info                      : Advanced Audio Codec
Format version                   : Version 4
Format profile                   : LC
Format settings, SBR             : No
Codec ID                         : 40
Duration                         : 1h 51mn
Bit rate mode                    : Variable
Bit rate                         : 352.8 Kbps
Maximum bit rate                 : 443 Kbps
Channel(s)                       : 6 channels
Channel positions                : Front: L C R, Rear: L R, LFE
Sampling rate                    : 48.0 KHz
Resolution                       : 16 bits
Stream size                      : 282 MiB (13%)
Encoded date                     : UTC 2011-01-08 13:54:08

Subtitles                        : English | Hungarian | Polish | Portuguese



----------------------------------------------------
IMDB Link: http://www.imdb.com/title/tt1245526/
----------------------------------------------------



ScreenShots:
==============    
http://bayimg.com/JADlpaada 
http://bayimg.com/KAdLkaAdA 
http://bayimg.com/laDlBaadA 
http://bayimg.com/LAdLJaADa 
http://bayimg.com/maDLaaaDa



ScreenShots Comparison:
========================= 
http://screenshotcomparison.com/comparison/18473



Plot:
======
Frank, Joe, Marvin, and Victoria used to be the CIA's top agents - but the secrets they know just made them the Agency's top targets. Now framed for assassination, they must use all of their collective cunning, experience and teamwork to stay one step ahead of their pursuers and stay alive. The team embarks on an impossible, cross-country mission to break into the top-secret CIA headquarters, where they will uncover one of the biggest conspiracies and cover-ups in government history. Old? My a!                                                                    



Release Info:
==============
original name .... : Red 2010 BRRip H264 AAC [ChattChitto RG]
ripper.............: CiNEFiLE - THANKS!
encoder............: Recalled2Life (R2L)
video codec........: H264/.MP4
video bitrate......: 2300 Kbps
audio codec........: AAC-LC
aspect ratio.......: 2.40:1
resolution.........: 1280 x 528
genre..............: Action | Comedy | Crime         
runtime............: 1h 51mn
language...........: English
rating.............: PG-13
subtitles..........: English | Hungarian | Polish | Portuguese
sample.............: Yes [14.2 MB]
2ch Audio..........: 2ch Audio for XBox Viewers  
Compatibility .....: XBox 360 | PS3 | WD Live



Source:
========
Red.2010.1080p.BluRay.x264-CiNEFiLE - THANKS!



Notes:
=======
ChattChitto RG Encourages Burning this Film with ConvertXtoDVD.
XBox 360 | PS3 | WD Live - Compatible
Enhanced and Filtered for your viewing pleasure ;)